<?xml version="1.0" encoding="utf-8"?>
<!-- Generator: Adobe Illustrator 25.1.0, SVG Export Plug-In . SVG Version: 6.00 Build 0)  -->
<svg version="1.1" id="Capa_1" xmlns="http://www.w3.org/2000/svg" xmlns:xlink="http://www.w3.org/1999/xlink" x="0px" y="0px"
	 viewBox="0 0 874.3 273.2" style="enable-background:new 0 0 874.3 273.2;" xml:space="preserve">
<style type="text/css">
	.st0{opacity:0.5;fill:#FFFFFF;}
	.st1{fill:#FFFFFF;}
	.st2{fill:#FF2972;}
</style>
<g>
	<g>
		<g>
			<polygon class="st0" points="118.3,165.2 118.4,165.1 118.2,165.1 86.4,146 54.7,165.1 54.6,165.1 54.7,165.2 54.6,165.2 
				54.7,165.2 86.6,184.2 118.2,165.2 118.4,165.2 			"/>
			<polygon class="st1" points="118.4,92.9 118.4,127.2 118.4,161.5 118.4,165.2 86.6,184.2 86.6,218.6 118.4,199.5 150.3,180.4 
				150.3,142.5 150.3,142.4 150.3,108.1 150.3,73.7 			"/>
			<polygon class="st0" points="150.3,73.7 118.4,54.6 86.7,73.7 118.4,92.9 			"/>
			<polygon class="st0" points="86.8,112.1 55,92.9 86.7,73.7 			"/>
		</g>
		<g>
			<g>
				<path class="st1" d="M247.3,144.8c0,9.4-7.4,16.1-18,16.1h-18.9H205v-54.7h10.8h8.6c10.1,0,17.3,6.2,17.3,15.2
					c0,4.1-1.5,7.4-4.1,9.9C243.7,133.4,247.3,138.1,247.3,144.8z M215.8,115.8v12.5h7.7c4.6,0,7.1-2.6,7.1-6.3
					c0-3.8-2.5-6.2-7.1-6.2H215.8z M236.3,144.3c0-4.2-2.9-6.9-7.8-6.9h-12.8v13.7h12.8C233.4,151.2,236.3,148.6,236.3,144.3z"/>
				<path class="st1" d="M289.9,136.5v24.4h-10.3v-4c-2.9,3.1-7.2,5-12.5,5c-8.9,0-14.2-5.3-14.2-12.3c0-7.5,6-11.9,15.5-11.9h10.3
					v-1.8c0-4.5-2.6-7.2-7.6-7.2c-4.4,0-7.5,2.1-10.9,5.6l-5.8-6.9c4.8-5.7,10.7-8.4,17.9-8.4C282.8,118.9,289.9,124.8,289.9,136.5z
					 M278.7,145.5V145h-8.8c-3.6,0-5.7,1.4-5.7,4.1c0,2.8,2.4,4.5,5.9,4.5C274.8,153.6,278.7,150.3,278.7,145.5z"/>
				<path class="st1" d="M343.4,140.4c0,12.3-8.3,21.5-19.9,21.5c-5.6,0-10.4-2.2-13.2-6.1v5.1h-10.3V98.7h11.2v25.1
					c2.8-3.1,7.1-4.9,12.3-4.9C335.1,118.9,343.4,128,343.4,140.4z M332.1,140.3c0-7-4.8-11.3-10.6-11.3c-5.2,0-10.4,3.6-10.4,11.3
					c0,7.9,5.2,11.3,10.4,11.3C327.3,151.6,332.1,147.2,332.1,140.3z"/>
				<path class="st1" d="M389.9,119.8l-19.6,44.6c-3.7,8.4-8.6,12.3-16.3,12.3c-2.3,0-5.1-0.4-7.2-1v-9.4c1.9,0.2,3.5,0.3,4.8,0.3
					c3.6,0,6.5-0.9,8.5-5.5l1.2-2.7l-15.7-38.6h11.8l10,26.9l10.7-26.9H389.9z"/>
				<path class="st1" d="M405.5,160.8h-11.2V98.7h11.2V160.8z"/>
				<path class="st1" d="M457.1,140.3c0,12.2-9.9,21.5-22.1,21.5c-12.2,0-21.9-9.3-21.9-21.5c0-12.1,9.7-21.4,21.9-21.4
					C447.2,118.9,457.1,128.2,457.1,140.3z M424.5,140.4c0,6.5,4.4,11.1,10.6,11.1c6,0,10.6-4.7,10.6-11.1c0-6.5-4.6-11.3-10.6-11.3
					C428.9,129.1,424.5,133.9,424.5,140.4z"/>
				<path class="st1" d="M502.3,135.4v25.4h-11.1v-23.9c0-4.7-3.1-8-7.6-8c-4.6,0-7.8,3.2-7.8,8v23.9h-11.2v-41h10.3v3.7
					c2.8-2.8,7-4.6,12-4.6C496.5,118.9,502.3,125.5,502.3,135.4z"/>
			</g>
		</g>
	</g>
	<path class="st1" d="M528.4,154.1c0,4.4-3.2,7.7-7.6,7.7c-4.5,0-7.8-3.3-7.8-7.7c0-4.3,3.3-7.7,7.8-7.7
		C525.2,146.4,528.4,149.8,528.4,154.1z"/>
	<path class="st1" d="M554.3,97.7c2.6,0,4.6,0.4,6.1,0.9v9.4c-1.2-0.2-2.2-0.2-3.3-0.2c-5,0-7.5,1.7-7.5,6.4v5.7h9v9.4h-9v31.6
		h-11.2v-31.6h-5.8v-9.4h5.8v-6.7C538.5,102.6,544.8,97.7,554.3,97.7z M564.6,104.9c0-4,3.2-7,7.2-7c3.9,0,7.1,3,7.1,7
		c0,3.9-3.2,6.9-7.1,6.9C567.8,111.8,564.6,108.8,564.6,104.9z M566.2,119.8h11.2v41h-11.2V119.8z"/>
	<path class="st1" d="M627,135.4v25.4h-11.1v-23.9c0-4.7-3.1-8-7.6-8c-4.6,0-7.8,3.2-7.8,8v23.9h-11.2v-41h10.3v3.7
		c2.8-2.8,7-4.6,12-4.6C621.2,118.9,627,125.5,627,135.4z"/>
	<path class="st1" d="M670.9,136.5v24.4h-10.3v-4c-2.9,3.1-7.2,5-12.5,5c-8.9,0-14.2-5.3-14.2-12.3c0-7.5,6-11.9,15.5-11.9h10.3
		v-1.8c0-4.5-2.6-7.2-7.6-7.2c-4.4,0-7.5,2.1-10.9,5.6l-5.8-6.9c4.8-5.7,10.7-8.4,17.9-8.4C663.8,118.9,670.9,124.8,670.9,136.5z
		 M659.7,145.5V145h-8.8c-3.6,0-5.7,1.4-5.7,4.1c0,2.8,2.4,4.5,5.9,4.5C655.8,153.6,659.7,150.3,659.7,145.5z"/>
	<path class="st1" d="M717.3,135.4v25.4h-11.1v-23.9c0-4.7-3.1-8-7.6-8c-4.6,0-7.8,3.2-7.8,8v23.9h-11.2v-41h10.3v3.7
		c2.8-2.8,7-4.6,12-4.6C711.5,118.9,717.3,125.5,717.3,135.4z"/>
	<path class="st1" d="M762.4,129l-7.8,6c-2.3-3.5-5.3-6-9.9-6c-6.4,0-10.8,4.8-10.8,11.2c0,6.5,4.4,11.3,10.8,11.3
		c4.5,0,7.5-2.5,9.9-5.9l7.8,6c-3.4,6.1-9.7,10.2-17.8,10.2c-12.3,0-21.9-9.4-21.9-21.5c0-12.1,9.7-21.4,21.9-21.4
		C752.8,118.9,759,122.9,762.4,129z"/>
	<path class="st1" d="M805.3,144.1h-28.8c1.4,5.2,5.7,8.1,11.6,8.1c4.5,0,8.1-1.6,11.4-4.1l4.6,7.6c-4.6,3.9-10.1,6.1-16.4,6.1
		c-13,0-22.4-9.4-22.4-21.5s9.4-21.5,21.5-21.5c11.5,0,19.3,8.4,19.3,19.1C806,140.3,805.6,142.7,805.3,144.1z M776.5,136.2h18.7
		c-0.1-5.2-4.1-8.3-8.9-8.3S777.8,131.1,776.5,136.2z"/>
</g>
</svg>
