<?xml version="1.0" encoding="utf-8"?>
<!-- Generator: Adobe Illustrator 25.1.0, SVG Export Plug-In . SVG Version: 6.00 Build 0)  -->
<svg version="1.1" id="Layer_1" xmlns="http://www.w3.org/2000/svg" xmlns:xlink="http://www.w3.org/1999/xlink" x="0px" y="0px"
	 viewBox="0 0 16 16" enable-background="new 0 0 16 16" xml:space="preserve">
<g>
	<polygon fill="#937DFF" points="9.5,10.8 9.6,10.8 9.5,10.8 6.4,8.9 3.3,10.8 3.3,10.8 3.3,10.8 3.3,10.8 3.3,10.8 6.5,12.6 
		9.5,10.8 9.6,10.8 	"/>
	<polygon fill="#FFBE44" points="9.6,3.7 9.6,7.1 9.6,10.4 9.6,10.8 6.5,12.6 6.5,16 9.6,14.1 12.7,12.3 12.7,8.6 12.7,8.6 
		12.7,5.2 12.7,1.9 	"/>
	<polygon fill="#937DFF" points="12.7,1.9 9.6,0 6.5,1.9 9.6,3.7 	"/>
	<polyline fill="#FF2972" points="9.6,3.7 9.6,3.7 9.6,3.7 	"/>
	<polygon fill="#937DFF" points="6.5,5.6 3.4,3.7 6.5,1.9 	"/>
</g>
</svg>
