<svg width="558" height="699" viewBox="0 0 558 699" fill="none" xmlns="http://www.w3.org/2000/svg">
<path d="M261.865 303.954L262.188 303.711H261.622L174.311 251.191L87.5659 303.711H87L87.2425 303.954H87H87.5659L174.877 356.231L261.622 303.954H262.188H261.865Z" fill="#937DFF"/>
<path d="M262.026 105.283V199.561V293.838V303.711L174.715 356.231V450.752L262.026 398.231L349.58 345.711V241.561V241.318V147.04V52.5203L262.026 105.283Z" fill="#F0F0F0"/>
<path d="M349.742 52.5202L262.188 0L175.12 52.763L262.188 105.283L349.742 52.5202Z" fill="#160E6B"/>
<path d="M471.622 480.52L383.988 428L297 480.844L383.988 533.283L471.622 480.52Z" fill="#FFBE44"/>
<path opacity="0.3" d="M174.622 645.52L86.9877 593L0 645.844L86.9877 698.283L174.622 645.52Z" fill="#160E6B"/>
<path d="M471.703 675V575.202V480.682L384.311 533.364V675H471.703Z" fill="#F0F0F0"/>
<path opacity="0.3" d="M557.988 219L471 271.844L557.988 324.283V219Z" fill="#160E6B"/>
</svg>
