<?xml version="1.0" standalone="no"?>
<!DOCTYPE svg PUBLIC "-//W3C//DTD SVG 20010904//EN"
 "http://www.w3.org/TR/2001/REC-SVG-20010904/DTD/svg10.dtd">
<svg version="1.0" xmlns="http://www.w3.org/2000/svg"
 width="700.000000pt" height="700.000000pt" viewBox="0 0 700.000000 700.000000"
 preserveAspectRatio="xMidYMid meet">
<metadata>
Created by potrace 1.11, written by Peter Selinger 2001-2013
</metadata>
<g transform="translate(0.000000,700.000000) scale(0.100000,-0.100000)"
fill="#000000" stroke="none">
<path d="M4115 6949 c-44 -27 -105 -64 -135 -83 -30 -18 -244 -149 -475 -291
-231 -142 -432 -265 -447 -274 -14 -9 -67 -41 -117 -71 -50 -30 -91 -57 -91
-60 0 -5 22 -18 150 -91 25 -14 140 -81 255 -149 116 -67 224 -130 240 -140
46 -26 341 -197 530 -307 l170 -99 2 -1554 3 -1555 -28 -16 c-128 -73 -619
-358 -662 -384 -30 -18 -71 -42 -90 -53 -19 -10 -52 -29 -72 -42 -21 -12 -38
-20 -38 -17 0 3 21 18 48 33 81 49 95 57 228 137 71 43 136 83 144 88 272 162
333 199 337 199 14 0 82 55 76 61 -4 4 -84 54 -178 112 -468 287 -622 382
-647 396 -15 9 -135 82 -267 164 -131 81 -244 147 -250 147 -12 0 -51 -23
-521 -312 -157 -96 -310 -190 -340 -208 -30 -18 -71 -43 -90 -55 -19 -13 -111
-69 -205 -125 -93 -57 -176 -109 -183 -115 -13 -11 67 -61 298 -188 30 -16
120 -67 200 -112 80 -45 172 -97 205 -115 33 -18 85 -48 116 -66 31 -19 59
-34 63 -34 4 0 24 -11 45 -24 21 -13 80 -48 132 -77 52 -29 115 -64 140 -78
25 -14 77 -43 115 -64 l69 -39 -1 -743 c0 -409 2 -742 5 -741 3 2 78 47 166
101 88 54 212 130 275 168 63 39 138 85 165 102 42 26 271 167 340 208 10 7
57 36 102 64 46 29 86 53 89 53 3 0 32 18 64 40 32 22 62 40 65 40 4 0 19 8
33 19 15 10 142 85 282 166 140 81 296 171 345 200 50 29 173 101 275 160 209
122 333 194 435 253 l70 41 0 2275 1 2275 -186 114 c-102 63 -293 180 -425
261 -132 82 -249 153 -259 159 -20 12 -216 132 -252 154 -87 53 -236 143 -237
142 -1 0 -38 -23 -82 -50z m-815 -5194 c0 -2 -13 -11 -30 -20 -38 -19 -40 -11
-2 9 31 17 32 18 32 11z"/>
<path d="M2420 5924 c-223 -130 -419 -244 -436 -254 -16 -10 -91 -53 -165 -96
-74 -42 -174 -101 -224 -129 -49 -29 -91 -57 -92 -62 -3 -7 270 -181 445 -284
30 -17 527 -322 732 -449 69 -42 134 -82 145 -87 20 -11 20 -8 20 790 -1 502
-4 802 -10 804 -6 1 -192 -104 -415 -233z"/>
</g>
</svg>
