<svg width="396" height="514" viewBox="0 0 396 514" fill="none" xmlns="http://www.w3.org/2000/svg">
  <path d="M322 106H230V175H322V106Z" fill="#4420D6"/>
  <path d="M230 175H155V231H230V175Z" fill="#FFBC44"/>
  <path opacity="0.2" d="M95 50H66V72H95V50Z" fill="#160E6B"/>
  <path d="M104 479H57V514H104V479Z" fill="#FFBC44"/>
  <path d="M322 245H281V290H322V245Z" fill="#FFBC44"/>
  <path d="M141 0H95V50H141V0Z" fill="#F0F0F0"/>
  <path d="M396 440H245V490H396V440Z" fill="#F0F0F0"/>
  <path opacity="0.2" d="M396 355H350V405H396V355Z" fill="#160E6B"/>
  <path d="M281 290H230V365H281V290Z" fill="#917DFF"/>
  <path d="M58 394H0V479H58V394Z" fill="#F0F0F0"/>
  <path d="M104 440L230 365V439.877L104 440Z" fill="#160E6B"/>
  <path d="M281.042 314L322 290H281L281.042 314Z" fill="#F0F0F0"/>
  <path d="M230.083 231L322 175H230L230.083 231Z" fill="#FF2972"/>
</svg>
